HIERARCHY
ROOT Hips
{
	OFFSET	0.000000	0.000000	0.000000
	CHANNELS 6 Xposition Yposition Zposition Zrotation Xrotation Yrotation
	JOINT LeftHip
	{
		OFFSET	4.527559	0.000000	0.000000
		CHANNELS 3 Zrotation Xrotation Yrotation
		JOINT LeftKnee
		{
			OFFSET	0.000000	-15.748032	0.000000
			CHANNELS 3 Zrotation Xrotation Yrotation
			JOINT LeftAnkle
			{
				OFFSET	0.000000	-16.141731	0.000000
				CHANNELS 3 Zrotation Xrotation Yrotation
				End Site
				{
					OFFSET	0.000000	-3.937008	-1.377953
				}
			}
		}
	}
	JOINT RightHip
	{
		OFFSET	-4.527559	0.000000	0.000000
		CHANNELS 3 Zrotation Xrotation Yrotation
		JOINT RightKnee
		{
			OFFSET	0.000000	-15.748032	0.000000
			CHANNELS 3 Zrotation Xrotation Yrotation
			JOINT RightAnkle
			{
				OFFSET	0.000000	-16.141731	0.000000
				CHANNELS 3 Zrotation Xrotation Yrotation
				End Site
				{
					OFFSET	0.000000	-3.937008	-1.377953
				}
			}
		}
	}
	JOINT Chest
	{
		OFFSET	0.000000	7.874016	0.000000
		CHANNELS 3 Zrotation Xrotation Yrotation
		JOINT LeftCollar
		{
			OFFSET	0.000000	13.779528	0.000000
			CHANNELS 3 Zrotation Xrotation Yrotation
			JOINT LeftShoulder
			{
				OFFSET	7.283464	0.000000	0.000000
				CHANNELS 3 Zrotation Xrotation Yrotation
				JOINT LeftElbow
				{
					OFFSET	0.000000	-10.433070	0.000000
					CHANNELS 3 Zrotation Xrotation Yrotation
					JOINT LeftWrist
					{
						OFFSET	0.000000	-10.629921	0.000000
						CHANNELS 3 Zrotation Xrotation Yrotation
						End Site
						{
							OFFSET	0.000000	-7.283464	0.000000
						}
					}
				}
			}
		}
		JOINT RightCollar
		{
			OFFSET	0.000000	13.779528	0.000000
			CHANNELS 3 Zrotation Xrotation Yrotation
			JOINT RightShoulder
			{
				OFFSET	-7.283464	0.000000	0.000000
				CHANNELS 3 Zrotation Xrotation Yrotation
				JOINT RightElbow
				{
					OFFSET	0.000000	-10.433070	0.000000
					CHANNELS 3 Zrotation Xrotation Yrotation
					JOINT RightWrist
					{
						OFFSET	0.000000	-10.629921	0.000000
						CHANNELS 3 Zrotation Xrotation Yrotation
						End Site
						{
							OFFSET	0.000000	-7.283464	0.000000
						}
					}
				}
			}
		}
		JOINT Neck
		{
			OFFSET	0.000000	13.779528	0.000000
			CHANNELS 3 Zrotation Xrotation Yrotation
			JOINT Head
			{
				OFFSET	0.000000	4.724409	0.000000
				CHANNELS 3 Zrotation Xrotation Yrotation
				End Site
				{
					OFFSET	0.000000	6.299212	0.000000
				}
			}
		}
	}
}
MOTION
Frames:     21
Frame Time: 0.008333
10.894691	36.450230	37.206341	-4.476438	-1.521716	87.060196	-1.890464	-2.244688	-2.354592	2.934113	0.655255	1.604319	-6.285428	2.948605	3.202765	-3.823286	-1.728308	3.751997	4.197537	1.665400	-11.094232	4.776999	2.060393	-5.216024	-1.631792	-5.455287	4.344644	-11.661763	-0.516712	1.108173	23.208574	0.318656	7.866064	-72.074799	-64.532150	-42.105694	-19.708620	-14.719015	0.021094	14.213211	1.921478	-2.765805	-32.130085	-2.005732	-23.849770	83.897675	-45.623379	34.510151	13.871022	1.445979	1.897259	-0.622052	23.862267	1.716660	-8.100755	-17.742407	5.810637	
10.924648	36.445492	37.227947	-4.466676	-1.450432	87.044243	-1.912562	-2.145788	-2.214570	2.908254	0.576300	1.582225	-6.281535	2.949292	3.106146	-3.908118	-1.476059	3.906974	4.185302	1.236125	-11.175098	4.853466	2.124770	-5.268235	-1.612471	-5.510046	4.304358	-11.811883	-0.413124	1.225277	22.813829	0.550089	8.027608	-72.565849	-64.623817	-42.489052	-20.055431	-14.858392	0.274481	14.222753	1.922352	-2.804288	-32.113297	-1.974022	-23.755989	83.881844	-45.590782	34.487476	14.017296	1.336922	1.782198	-0.562718	23.854292	1.759812	-7.952302	-17.767471	5.791450	
10.955682	36.439793	37.245899	-4.461881	-1.372671	87.048676	-1.952775	-2.046446	-2.101760	2.891498	0.486068	1.557405	-6.278255	2.954711	3.019704	-4.020298	-1.224537	4.008484	4.189782	0.817885	-11.369304	4.951770	2.196821	-5.188241	-1.602952	-5.564539	4.235431	-11.975295	-0.334060	1.366645	22.452269	0.773991	8.178494	-73.033936	-64.696671	-42.856621	-20.362482	-14.963861	0.494235	14.247381	1.939985	-2.807250	-32.109127	-1.919929	-23.737602	83.948441	-45.549519	34.520668	14.141239	1.249281	1.648962	-0.505679	23.834394	1.815050	-7.814625	-17.776730	5.763522	
10.982565	36.432938	37.262321	-4.456242	-1.282299	87.054230	-2.009960	-1.949841	-2.001901	2.878386	0.388162	1.543003	-6.280252	2.968720	2.939274	-4.141055	-0.977508	4.058021	4.188458	0.410881	-11.568557	5.054739	2.276572	-5.055971	-1.606526	-5.620429	4.194011	-12.158841	-0.223617	1.523546	22.133949	0.939103	8.311613	-73.474144	-64.742477	-43.205784	-20.632872	-15.044351	0.636869	14.283625	1.951637	-2.838809	-32.113819	-1.831541	-23.738232	84.084930	-45.504803	34.606796	14.238811	1.183969	1.505194	-0.428150	23.818512	1.833372	-7.697878	-17.797371	5.733545	
11.007562	36.425148	37.279030	-4.450377	-1.189489	87.060890	-2.089102	-1.856997	-1.929660	2.906343	0.295254	1.557864	-6.311469	2.979647	2.854892	-4.259634	-0.741936	4.058948	4.184660	0.033200	-11.705534	5.140306	2.347506	-4.945323	-1.603986	-5.672735	4.179974	-12.325094	-0.139053	1.676438	21.819679	1.101417	8.412912	-73.908813	-64.783669	-43.543686	-20.862446	-15.077037	0.701709	14.314925	1.966814	-2.890415	-32.106087	-1.754771	-23.757721	84.192619	-45.482079	34.678825	14.330674	1.144366	1.348424	-0.345723	23.805058	1.820641	-7.604054	-17.823046	5.694143	
11.032291	36.418049	37.299126	-4.453608	-1.108328	87.092278	-2.169204	-1.789370	-1.931500	2.969413	0.233365	1.612068	-6.367217	2.979899	2.777405	-4.360175	-0.542896	4.003201	4.180969	-0.283521	-11.732569	5.202548	2.395471	-4.924100	-1.582481	-5.734951	4.140161	-12.494204	-0.096368	1.837395	21.557589	1.308891	8.456549	-74.395584	-64.872261	-43.919151	-21.038990	-15.068738	0.686383	14.328310	2.024844	-2.926764	-32.061291	-1.706728	-23.827263	84.276184	-45.441563	34.761448	14.379354	1.106981	1.160849	-0.286379	23.786619	1.812117	-7.499135	-17.828062	5.640961	
11.053175	36.411968	37.319626	-4.463287	-1.038496	87.141922	-2.238180	-1.741427	-1.959105	3.034301	0.181757	1.660747	-6.425865	2.983646	2.712441	-4.417037	-0.382975	3.918917	4.164977	-0.538855	-11.683498	5.213042	2.418915	-4.956143	-1.566782	-5.815085	4.082156	-12.623045	-0.056410	2.001065	21.295172	1.481889	8.503487	-74.755669	-64.929031	-44.207451	-21.197554	-15.063231	0.606063	14.360587	2.087884	-2.957841	-32.019470	-1.644659	-23.890247	84.377441	-45.390697	34.863464	14.348670	1.059888	0.917062	-0.217644	23.780293	1.804606	-7.408690	-17.821289	5.589976	
11.067082	36.406929	37.338272	-4.465062	-0.978065	87.160873	-2.298390	-1.696797	-1.956844	3.096199	0.134299	1.692413	-6.481535	2.991729	2.665847	-4.420525	-0.250559	3.858940	4.125609	-0.738348	-11.584681	5.179175	2.449363	-5.007676	-1.549414	-5.893948	4.076814	-12.719733	-0.010235	2.140544	20.988516	1.590365	8.595222	-74.907410	-64.913452	-44.348770	-21.372614	-15.064073	0.476012	14.399159	2.148725	-3.008234	-31.983147	-1.587554	-23.940500	84.440453	-45.355942	34.905636	14.299452	1.017605	0.661214	-0.121434	23.779533	1.769417	-7.336660	-17.818132	5.549503	
11.075012	36.403992	37.356308	-4.471242	-0.930791	87.190834	-2.343684	-1.683254	-1.986702	3.151856	0.115717	1.730104	-6.535015	3.006198	2.635281	-4.384852	-0.192656	3.785672	4.075752	-0.826351	-11.437296	5.154441	2.444678	-5.117472	-1.509292	-5.972424	4.086038	-12.817615	0.032605	2.239851	20.697647	1.675799	8.674075	-74.991577	-64.906944	-44.433971	-21.538198	-15.062044	0.342869	14.419968	2.210510	-3.063277	-31.929966	-1.558652	-24.006927	84.430252	-45.311897	34.896637	14.245693	0.986658	0.389877	-0.040347	23.768665	1.713248	-7.244681	-17.812893	5.508021	
11.084057	36.400711	37.372803	-4.486564	-0.875278	87.247810	-2.402945	-1.684190	-2.027430	3.213654	0.103327	1.752861	-6.592476	3.025662	2.601337	-4.344291	-0.196259	3.678532	4.027518	-0.837641	-11.277724	5.125327	2.403907	-5.234017	-1.484234	-6.017039	4.072334	-12.902934	0.038034	2.322600	20.434912	1.727685	8.732431	-75.023949	-64.898560	-44.472500	-21.684397	-15.050131	0.230703	14.438975	2.221930	-3.104121	-31.877575	-1.541135	-24.057100	84.359077	-45.258839	34.851513	14.183052	0.938125	0.087707	0.034451	23.725163	1.649390	-7.160648	-17.810244	5.456338	
11.098248	36.393539	37.418602	-4.521505	-0.745777	87.370247	-2.469060	-1.708335	-2.025817	3.241131	0.092359	1.732950	-6.678149	3.058653	2.509763	-4.338147	-0.247359	3.448056	3.984420	-0.787494	-11.018228	5.049336	2.346516	-5.384904	-1.486942	-6.051677	4.057559	-12.989223	0.017791	2.361930	19.947544	1.827336	8.881116	-75.255219	-64.882904	-44.684628	-21.892393	-14.966580	0.094463	14.490651	2.173796	-3.171289	-31.800251	-1.453162	-24.089684	84.192627	-45.254559	34.745075	14.102415	0.849274	-0.571474	0.200505	23.608099	1.520411	-6.998614	-17.825134	5.324559	
11.103943	36.390030	37.440842	-4.538845	-0.684693	87.424950	-2.468944	-1.727331	-1.979059	3.192293	0.095217	1.704663	-6.682121	3.064085	2.444903	-4.363657	-0.329898	3.375009	3.989674	-0.675229	-10.928053	5.024990	2.291185	-5.457980	-1.495896	-6.069966	4.071295	-13.015281	0.047125	2.336137	19.776516	1.842664	8.943638	-75.427841	-64.901466	-44.826889	-21.999409	-14.896563	0.080295	14.499587	2.135749	-3.200686	-31.754848	-1.379274	-24.082516	84.154266	-45.275009	34.729042	14.055518	0.840975	-0.928243	0.275900	23.571341	1.482982	-6.929290	-17.854174	5.216841	
11.117518	36.384758	37.505371	-4.573255	-0.585866	87.526276	-2.371269	-1.753327	-1.761243	3.026061	0.086301	1.555717	-6.701972	3.064308	2.282279	-4.407446	-0.519387	3.315644	4.027825	-0.412173	-10.790086	4.969810	2.155947	-5.639991	-1.504078	-6.104583	4.074787	-13.074449	0.089098	2.290346	19.600401	1.899081	8.941105	-75.866211	-65.026169	-45.209812	-22.176592	-14.802544	0.089242	14.527029	2.115793	-3.200420	-31.685575	-1.297503	-24.053650	83.988029	-45.355370	34.620148	13.950450	0.890775	-1.546018	0.367781	23.522020	1.459543	-6.851122	-17.942358	4.952190	
11.140707	36.379387	37.586571	-4.642458	-0.485962	87.716545	-2.218917	-1.818427	-1.584890	2.803927	0.101515	1.366465	-6.723198	3.047008	2.110432	-4.507607	-0.738025	3.310472	4.137820	-0.143891	-10.786705	4.900785	1.999975	-5.832106	-1.456226	-6.088273	4.052892	-13.202855	0.068686	2.171231	19.580191	1.856640	8.900229	-76.195580	-65.058044	-45.504864	-22.312777	-14.799623	0.072956	14.476137	1.999830	-3.248709	-31.674873	-1.225788	-23.984766	83.920326	-45.433266	34.583557	13.801223	0.987972	-1.976843	0.400811	23.434608	1.277092	-6.828865	-18.091814	4.811621	
11.156538	36.380947	37.625229	-4.677558	-0.487565	87.824806	-2.101887	-1.848387	-1.489649	2.702649	0.115680	1.249742	-6.725053	3.037318	2.028087	-4.482070	-0.829719	3.387545	4.167420	-0.028974	-10.888900	4.866093	1.922181	-5.915622	-1.417992	-6.120621	4.007225	-13.205655	0.091603	2.139816	19.609520	1.801641	8.843847	-76.302292	-65.082695	-45.587196	-22.384077	-14.747437	0.025692	14.480384	2.008460	-3.254317	-31.707901	-1.207880	-23.937637	83.902710	-45.448910	34.553520	13.710737	0.976249	-2.097067	0.439307	23.428143	1.193933	-6.814213	-18.159468	4.762578	
11.161552	36.383038	37.657440	-4.718846	-0.489943	87.948654	-2.001923	-1.903646	-1.413447	2.614392	0.124708	1.116342	-6.717505	3.053611	1.963326	-4.465218	-0.906262	3.492404	4.199169	0.053208	-11.038651	4.842145	1.843502	-5.998647	-1.377399	-6.158939	3.951152	-13.190485	0.107566	2.088188	19.660473	1.735814	8.775610	-76.364777	-65.097504	-45.627220	-22.441360	-14.682605	-0.014721	14.467283	2.030879	-3.264266	-31.744513	-1.223653	-23.894402	83.860710	-45.389507	34.504967	13.619858	0.894204	-2.156196	0.478970	23.434757	1.101847	-6.818850	-18.227200	4.725711	
11.170933	36.385006	37.687546	-4.774660	-0.493802	88.113655	-1.909014	-1.974127	-1.391412	2.531938	0.141526	0.985910	-6.705735	3.066033	1.906948	-4.445280	-0.977889	3.594292	4.222338	0.115511	-11.241179	4.824399	1.759548	-6.066480	-1.337370	-6.209934	3.836740	-13.188862	0.110491	2.029715	19.748728	1.666236	8.729601	-76.385315	-65.078903	-45.639549	-22.490730	-14.645740	-0.069332	14.449853	2.066796	-3.260134	-31.778269	-1.250625	-23.834679	83.828331	-45.516098	34.465179	13.673216	0.964041	-2.177043	0.510454	23.441936	1.026802	-6.866296	-18.290367	4.685974	
11.180288	36.387077	37.718040	-4.831336	-0.497525	88.283188	-1.817708	-2.047390	-1.379662	2.452128	0.160329	0.870327	-6.692073	3.081794	1.841698	-4.404124	-1.049139	3.723870	4.220753	0.170135	-11.470311	4.803450	1.686262	-6.135815	-1.318726	-6.262922	3.713237	-13.160144	0.089789	1.984946	19.869501	1.588836	8.658200	-76.402946	-65.062904	-45.642590	-22.535959	-14.601671	-0.127557	14.460906	2.104373	-3.239522	-31.822306	-1.267017	-23.785032	83.819397	-45.540325	34.470947	13.698329	0.963921	-2.149064	0.567610	23.477194	0.946236	-6.939429	-18.379114	4.661020	
11.188561	36.391525	37.767654	-4.921073	-0.503421	88.557831	-1.678875	-2.197282	-1.358362	2.335825	0.228346	0.709253	-6.658449	3.116305	1.706323	-4.274367	-1.166186	4.091717	4.178243	0.243995	-11.914383	4.746072	1.584425	-6.333633	-1.301586	-6.350281	3.563638	-13.035915	0.004397	1.932877	20.133013	1.388018	8.429673	-76.560913	-64.960495	-46.044010	-22.476074	-14.590930	0.065924	14.465195	2.151708	-3.207534	-31.885303	-1.273478	-23.708237	83.870102	-45.550983	34.546295	13.778495	1.048291	-2.066058	0.669145	23.580191	0.784881	-7.024072	-18.497551	4.636373	
11.234882	36.403839	37.929733	-5.119627	-0.515531	89.176979	-1.245894	-2.498098	-0.987524	1.994845	0.389008	0.229617	-6.559492	3.194124	1.195318	-3.956711	-1.384225	4.771137	4.177697	0.452686	-12.684057	4.510483	1.267385	-6.851189	-1.269376	-6.552066	3.376767	-12.539211	-0.375128	1.728718	21.155037	0.731395	7.595498	-76.258720	-64.939980	-45.668468	-22.707352	-14.390206	-0.036339	14.413946	2.169266	-3.314463	-32.193817	-1.307664	-23.389803	83.956192	-45.333950	34.687805	13.898691	1.030822	-1.932607	0.764705	23.640322	0.491507	-7.082150	-18.270203	4.484158	
11.244177	36.405506	37.951878	-5.145665	-0.516380	89.264328	-1.190431	-2.525792	-0.926394	1.952412	0.394746	0.161815	-6.541548	3.212563	1.115450	-3.941058	-1.411866	4.796243	4.202441	0.470734	-12.769316	4.479612	1.240173	-6.874621	-1.269266	-6.578667	3.347734	-12.471313	-0.431890	1.689075	21.360407	0.608621	7.479264	-76.267891	-64.986412	-45.648708	-22.745579	-14.313526	-0.026792	14.373146	2.136177	-3.340145	-32.184353	-1.317617	-23.318684	83.920288	-45.327209	34.699100	13.899218	1.040763	-1.933276	0.779440	23.662735	0.446927	-7.079705	-18.177794	4.494434	
